<svg xmlns="http://www.w3.org/2000/svg" viewBox="0 0 800 520" fill="none" font-family="Consolas, monospace">
  <!-- Trục lưới -->
  <g stroke="#2E4B73" stroke-width="1" stroke-dasharray="10 4 2 4">
    <path d="M80 44V476M240 44V476M400 44V476M560 44V476M720 44V476"/>
    <path d="M56 60H744M56 200H744M56 330H744M56 460H744"/>
  </g>
  <g stroke="#5D86B8" stroke-width="1.5">
    <circle cx="80" cy="26" r="14"/><circle cx="240" cy="26" r="14"/><circle cx="400" cy="26" r="14"/><circle cx="560" cy="26" r="14"/><circle cx="720" cy="26" r="14"/>
    <circle cx="34" cy="60" r="14"/><circle cx="34" cy="200" r="14"/><circle cx="34" cy="330" r="14"/><circle cx="34" cy="460" r="14"/>
  </g>
  <g fill="#8FC1EA" font-size="14" text-anchor="middle">
    <text x="80" y="31">1</text><text x="240" y="31">2</text><text x="400" y="31">3</text><text x="560" y="31">4</text><text x="720" y="31">5</text>
    <text x="34" y="65">A</text><text x="34" y="205">B</text><text x="34" y="335">C</text><text x="34" y="465">D</text>
  </g>

  <!-- Tường bao -->
  <rect x="80" y="60" width="640" height="400" stroke="#BFDDF7" stroke-width="7"/>
  <!-- Tường trong -->
  <g stroke="#BFDDF7" stroke-width="4">
    <path d="M400 60V170M400 210V460"/>
    <path d="M80 200H230M270 200H520M560 200H720"/>
    <path d="M240 200V330M240 370V460"/>
    <path d="M400 330H600M640 330H720"/>
  </g>
  <!-- Cửa đi -->
  <g stroke="#8FC1EA" stroke-width="1.6">
    <path d="M230 200V160A40 40 0 0 1 270 200"/>
    <path d="M520 200V160A40 40 0 0 1 560 200"/>
    <path d="M400 170H440A40 40 0 0 1 400 210"/>
    <path d="M600 330V370A40 40 0 0 0 640 330"/>
    <path d="M240 330H280A40 40 0 0 1 240 370"/>
  </g>
  <!-- Cửa sổ -->
  <g stroke="#BFDDF7" stroke-width="1.5" fill="#0B1222">
    <rect x="120" y="55" width="80" height="10"/><rect x="290" y="55" width="70" height="10"/><rect x="450" y="55" width="70" height="10"/><rect x="610" y="55" width="70" height="10"/>
    <rect x="120" y="455" width="80" height="10"/><rect x="450" y="455" width="70" height="10"/>
    <rect x="715" y="240" width="10" height="60"/><rect x="75" y="250" width="10" height="60"/>
  </g>
  <path d="M120 60H200M290 60H360M450 60H520M610 60H680M120 460H200M450 460H520" stroke="#BFDDF7" stroke-width="1"/>
  <!-- Cột -->
  <g fill="#8FC1EA">
    <rect x="74" y="54" width="12" height="12"/><rect x="234" y="54" width="12" height="12"/><rect x="394" y="54" width="12" height="12"/><rect x="554" y="54" width="12" height="12"/><rect x="714" y="54" width="12" height="12"/>
    <rect x="74" y="194" width="12" height="12"/><rect x="234" y="194" width="12" height="12"/><rect x="394" y="194" width="12" height="12"/><rect x="554" y="194" width="12" height="12"/><rect x="714" y="194" width="12" height="12"/>
    <rect x="74" y="454" width="12" height="12"/><rect x="234" y="454" width="12" height="12"/><rect x="394" y="454" width="12" height="12"/><rect x="554" y="454" width="12" height="12"/><rect x="714" y="454" width="12" height="12"/>
  </g>
  <!-- Cầu thang -->
  <g stroke="#5D86B8" stroke-width="1.2">
    <rect x="600" y="350" width="100" height="96"/>
    <path d="M600 362H700M600 374H700M600 386H700M600 398H700M600 410H700M600 422H700M600 434H700M650 350V446"/>
  </g>
  <!-- Thiết bị vệ sinh -->
  <g stroke="#5D86B8" stroke-width="1.2"><rect x="120" y="360" width="40" height="28" rx="6"/><ellipse cx="190" cy="420" rx="16" ry="20"/></g>

  <!-- Nhãn -->
  <g fill="#8FC1EA" font-size="13">
    <text x="252" y="150">D1</text><text x="542" y="150">D1</text><text x="446" y="194">D2</text><text x="606" y="314">D1</text><text x="286" y="378">D3</text>
    <text x="134" y="52" font-size="11">S1</text><text x="300" y="52" font-size="11">S1</text><text x="460" y="52" font-size="11">S2</text><text x="620" y="52" font-size="11">S2</text>
  </g>
  <g fill="#C9DCF0" font-size="15" text-anchor="middle" letter-spacing="1">
    <text x="160" y="135">P. NGỦ 1</text><text x="320" y="125">P. NGỦ 2</text><text x="560" y="120">P. KHÁCH</text>
    <text x="160" y="300">KHO</text><text x="320" y="270">HÀNH LANG</text><text x="320" y="420">BẾP</text><text x="170" y="350" font-size="13">WC</text>
    <text x="480" y="400">P. ĂN</text><text x="650" y="270">SẢNH</text>
  </g>
  <!-- Đường kích thước -->
  <g stroke="#5D86B8" stroke-width="1">
    <path d="M80 494H720M80 486V502M240 486V502M400 486V502M560 486V502M720 486V502"/>
  </g>
  <g fill="#8FC1EA" font-size="12" text-anchor="middle"><text x="160" y="490">4000</text><text x="320" y="490">4000</text><text x="480" y="490">4000</text><text x="640" y="490">4000</text></g>
</svg>
